<svg width="20" height="20" xmlns="http://www.w3.org/2000/svg">
 <g>
  <path fill-rule="evenodd" clip-rule="evenodd" d="m19.564,17.7662c0.2478,0.2482 0.2478,0.6506 0,0.8984l-0.8987,0.8987c-0.2479,0.2478 -0.65,0.2478 -0.8978,0l-4.9882,-4.988c-0.0679,-0.0687 -0.1131,-0.1495 -0.144,-0.2353c-1.2901,0.9424 -2.87505,1.5053 -4.59403,1.5053c-4.31171,0 -7.80628,-3.4946 -7.80628,-7.80549c0,-4.31074 3.49456,-7.8055 7.80628,-7.8055c4.31073,0 7.80473,3.49476 7.80473,7.8055c0,1.71957 -0.5629,3.30449 -1.5046,4.59479c0.0853,0.0303 0.1667,0.0758 0.2346,0.144l4.9879,4.9876l0.0001,0zm-11.52272,-14.92999c-2.87448,0 -5.2036,2.32971 -5.2036,5.2036c0,2.87389 2.32912,5.20399 5.2036,5.20399c2.87372,0 5.20382,-2.3301 5.20382,-5.20399c0,-2.8739 -2.3301,-5.2036 -5.20382,-5.2036z" id="magnifying_glass" fill="#ffffff"/>
 </g>
</svg>